<?xml version="1.0" encoding="iso-8859-1"?>
<!-- Generator: Adobe Illustrator 19.0.0, SVG Export Plug-In . SVG Version: 6.00 Build 0)  -->
<svg version="1.1" id="Capa_1" xmlns="http://www.w3.org/2000/svg" xmlns:xlink="http://www.w3.org/1999/xlink" x="0px" y="0px"
	 viewBox="0 0 512 512" style="enable-background:new 0 0 512 512;" xml:space="preserve">
<g>
	<g>
		<polygon points="482,181 482,196 451,196 451,181 61,181 61,196 30,196 30,181 0,181 0,241 30,241 30,226 61,226 61,241 451,241 
			451,226 482,226 482,241 512,241 512,181 		"/>
	</g>
</g>
<g>
	<g>
		<path d="M213.564,271c6.196,17.461,22.881,30,42.437,30c19.556,0,36.239-12.539,42.436-30H213.564z"/>
	</g>
</g>
<g>
	<g>
		<path d="M475.027,391L421,311.459V271h-91.518c-6.969,34.191-37.266,60-73.482,60s-66.513-25.809-73.482-60H91v40.459L36.973,391
			H0v121h512V391H475.027z M121,451H91v-30h30V451z M121,361h30v30h-30V361z M181,451h-30v-30h30V451z M181,361h30v30h-30V361z
			 M241,451h-30v-30h30V451z M241,361h30v30h-30V361z M301,451h-30v-30h30V451z M301,361h30v30h-30V361z M361,451h-30v-30h30V451z
			 M361,361h30v30h-30V361z M421,451h-30v-30h30V451z"/>
	</g>
</g>
<g>
	<g>
		<path d="M121,0v151h270V0H121z M331,120H181V90h150V120z M331,60H181V30h150V60z"/>
	</g>
</g>
<g>
</g>
<g>
</g>
<g>
</g>
<g>
</g>
<g>
</g>
<g>
</g>
<g>
</g>
<g>
</g>
<g>
</g>
<g>
</g>
<g>
</g>
<g>
</g>
<g>
</g>
<g>
</g>
<g>
</g>
</svg>
