<?xml version="1.0" standalone="no"?>
<!DOCTYPE svg PUBLIC "-//W3C//DTD SVG 1.1//EN" "http://www.w3.org/Graphics/SVG/1.1/DTD/svg11.dtd">
<svg xmlns="http://www.w3.org/2000/svg">
<defs >
<font id="Rokkitt" horiz-adv-x="531" ><font-face
    font-family="Rokkitt"
    units-per-em="1000"
    panose-1="0 0 0 0 0 0 0 0 0 0"
    ascent="817"
    descent="-320"
    alphabetic="0" />
<glyph unicode=" " horiz-adv-x="305" />
<glyph unicode="!" horiz-adv-x="177" d="M59 153L45 417V587H122V417L108 153H59ZM83 -6Q61 -6 46 8T30 44Q30 66 45 80T83 95Q106 95 121 81T137 44Q137 23 122 9T83 -6Z" />
<glyph unicode="&quot;" horiz-adv-x="309" d="M74 420L54 630H135L119 420H74ZM194 420L174 630H255L239 420H194Z" />
<glyph unicode="#" horiz-adv-x="553" d="M93 -4L116 172H35V222H126L146 374H45V425H156L179 591H238L215 425H376L399 591H459L435 425H520V374H426L406 222H510V172H396L373 -4H313L337 172H175L151 -4H93ZM185 222H346L366 374H205L185 222Z" />
<glyph unicode="$" horiz-adv-x="521" d="M222 -89V661H282V-89H222ZM279 -10Q239 -10 205 2T144 37T102 90H115V0H50V190H110Q114 149 135 117T192 67T276 48Q328 48 357 72T386 143Q386 180 373 200T330 232T250 252L226 256Q145 270 96 309T47 420Q47 470 69
504T131 556T224 574Q283 574 328 548T389 477H368V563H432V404H373Q369 428 356 454T313 498T228 516Q176 516 148 492T120 428Q120 385 151 362T241 328L264 324Q330 313 373 294T437 242T459 155Q459 111 438 74T377 13T279 -10Z" />
<glyph unicode="%" horiz-adv-x="714" d="M177 291Q138 291 107 309T58 360T40 434Q40 475 58 506T107 556T177 574Q237 574 276 535T316 434Q316 393 298 361T249 310T177 291ZM177 335Q215 336 239 363T263 434Q263 476 239 503T177 531Q141 530 117 503T92
434Q92 391 116 364T177 335ZM536 -11Q497 -11 466 7T417 58T399 132Q399 193 438 232T536 272Q595 272 634 233T674 132Q674 91 656 59T607 8T536 -11ZM536 34Q574 34 598 61T622 132Q622 174 598 201T536 229Q500 229 476 202T451 132Q451 89 475 62T536 34ZM146
-1L519 567H570L198 -1H146Z" />
<glyph unicode="&amp;" horiz-adv-x="625" d="M249 -10Q190 -10 145 12T75 74T50 165Q50 206 67 238T117 294T197 336Q167 373 150 405T133 471Q133 507 152 534T204 577T282 593Q324 593 355 578T405 537T423 476Q423 426 391 387T293 318L429 156Q442 174 452
196T469 243T480 290H595V234H528Q522 212 513 189T492 145T467 108L508 56H595V0H467L422 58Q387 25 343 8T249 -10ZM260 52Q296 52 328 65T385 105L231 293Q178 274 152 243T125 168Q125 135 142 109T189 67T260 52ZM260 362Q309 384 334 411T360 472Q360 504
339 522T281 541Q245 541 223 524T201 474Q201 450 217 424T260 362Z" />
<glyph unicode="&apos;" horiz-adv-x="189" d="M74 420L54 630H135L119 420H74Z" />
<glyph unicode="(" horiz-adv-x="277" d="M245 -59Q179 -33 135 16T68 128T46 256Q46 322 68 385T134 497T245 573L246 525Q209 506 185 465T148 370T135 258Q135 200 147 146T184 50T246 -11L245 -59Z" />
<glyph unicode=")" horiz-adv-x="277" d="M55 -59V-11Q92 8 116 49T153 145T166 258Q166 316 154 370T117 465T55 525V573Q122 547 166 498T232 385T255 256Q255 191 233 129T166 17T55 -59Z" />
<glyph unicode="*" horiz-adv-x="456" d="M134 201L82 239L208 379L25 422L44 482L217 401L196 589H260L239 401L412 482L431 422L248 379L374 239L322 201L228 365L134 201Z" />
<glyph unicode="+" horiz-adv-x="572" d="M256 60V253H70V306H256V499H316V306H502V253H316V60H256Z" />
<glyph unicode="," horiz-adv-x="241" d="M60 -116V-78Q90 -73 102 -57T114 0H63V95H161V15Q161 -47 138 -81T60 -116Z" />
<glyph unicode="-" horiz-adv-x="347" d="M54 206V262H293V206H54Z" />
<glyph unicode="." horiz-adv-x="234" d="M60 0V94H154V0H60Z" />
<glyph unicode="/" horiz-adv-x="323" d="M10 -140L290 593H353L73 -140H10Z" />
<glyph unicode="0" horiz-adv-x="536" d="M268 -11Q164 -11 112 65T60 284Q60 418 112 495T268 573Q372 573 424 496T476 284Q476 141 424 65T268 -11ZM268 42Q333 42 367 104T402 284Q402 400 368 460T268 520Q203 520 169 460T134 284Q134 166 168 104T268 42Z" />
<glyph unicode="1" horiz-adv-x="312" d="M47 0V53H131V498L46 484L44 537L203 563V53H282V0H47Z" />
<glyph unicode="2" horiz-adv-x="457" d="M40 0V50L202 214Q248 261 276 294T318 356T332 421Q332 461 308 490T230 520Q179 520 149 492T119 408Q119 394 121 379T127 346H59Q55 362 53 378T50 409Q50 459 73 495T139 552T240 573Q318 573 362 533T406 429Q406
387 387 350T333 273T247 183L89 24L76 56H344V163H410L411 0H40Z" />
<glyph unicode="3" horiz-adv-x="478" d="M238 -10Q165 -10 113 21T30 107L89 140Q113 97 150 73T241 48Q299 48 331 75T364 151Q364 210 321 238T187 266V323Q270 323 313 349T356 427Q356 467 327 491T243 515Q191 515 154 489T101 418L41 446Q58 486 87 514T156
557T244 573Q327 573 376 534T426 430Q426 390 406 359T350 310T270 291V302Q343 302 390 261T438 151Q438 101 414 65T345 10T238 -10Z" />
<glyph unicode="4" horiz-adv-x="453" d="M179 0V53H267V148H7L0 198L266 563H335V201H423V148H335V53H403V0H179ZM67 201H267V474L67 201Z" />
<glyph unicode="5" horiz-adv-x="491" d="M245 -11Q178 -11 128 15T40 83L87 131Q117 96 155 74T244 51Q308 51 343 84T378 172Q378 228 345 261T252 294Q215 294 183 280T125 241L66 265L73 563H419V419H349V504H136L129 265L110 294Q136 325 177 341T265 358Q357
358 404 306T452 174Q452 116 427 75T355 11T245 -11Z" />
<glyph unicode="6" horiz-adv-x="460" d="M235 -10Q178 -10 134 13T64 79T38 178Q38 219 46 252T76 325T138 425L261 611L320 571L121 278L114 292Q127 310 147 324T195 348T256 357Q302 357 340 335T402 273T426 179Q426 124 401 82T333 15T235 -10ZM235 47Q292
47 324 83T357 177Q357 233 326 267T240 302Q206 302 177 287T130 244T112 174Q112 122 143 85T235 47Z" />
<glyph unicode="7" horiz-adv-x="434" d="M128 0L317 507H84V411H12V563H394V512L200 0H128Z" />
<glyph unicode="8" horiz-adv-x="464" d="M233 -11Q167 -11 122 10T53 68T30 150Q30 202 59 239T141 294Q91 316 70 349T48 426Q48 470 70 503T134 554T232 573Q289 573 330 555T394 504T417 426Q417 381 395 347T322 293Q378 277 406 240T434 151Q434 105 411
68T342 10T233 -11ZM233 46Q289 46 321 75T354 153Q354 209 312 234T187 272Q172 268 154 253T123 212T110 154Q110 105 143 76T233 46ZM274 313Q286 317 301 330T329 367T341 420Q341 464 313 490T232 517Q181 517 153 491T124 420Q124 370 164 346T274 313Z"
/>
<glyph unicode="9" horiz-adv-x="460" d="M199 -47L140 -7L339 286L346 272Q334 254 313 240T265 216T204 207Q158 207 120 229T58 291T34 385Q34 440 59 482T127 549T225 574Q282 574 326 551T396 485T422 386Q422 346 414 313T384 240T322 139L199 -47ZM220
262Q254 262 283 277T330 320T348 390Q348 443 318 480T225 517Q168 517 136 481T103 387Q103 331 134 297T220 262Z" />
<glyph unicode=":" horiz-adv-x="234" d="M60 0V94H154V0H60ZM60 299V393H154V299H60Z" />
<glyph unicode=";" horiz-adv-x="241" d="M60 -116V-78Q90 -73 102 -57T114 0H63V95H161V15Q161 -47 138 -81T60 -116ZM60 299V393H154V299H60Z" />
<glyph unicode="&lt;" horiz-adv-x="513" d="M463 68L70 258V308L463 498V438L133 283L463 128V68Z" />
<glyph unicode="=" horiz-adv-x="551" d="M70 341V394H481V341H70ZM70 175V228H481V175H70Z" />
<glyph unicode="&gt;" horiz-adv-x="513" d="M50 68L443 258V308L50 498V438L380 283L50 128V68Z" />
<glyph unicode="?" horiz-adv-x="383" d="M134 152V158Q134 196 143 222T170 272T213 323Q245 359 259 387T273 451Q273 492 251 513T193 534Q153 534 131 511T106 443H22Q25 493 49 526T110 576T192 593Q269 593 314 554T360 453Q360 408 336 375T271 299Q247
274 234 255T216 214T211 158V152H134ZM172 -7Q150 -7 134 7T118 44Q118 66 134 80T172 95Q195 95 211 81T227 44Q227 22 211 8T172 -7Z" />
<glyph unicode="@" horiz-adv-x="708" d="M383 -26Q299 -26 237 -1T134 66T73 161T53 271Q53 330 74 387T137 490T239 563T379 591Q452 591 504 570T588 512T636 431T651 339Q651 293 636 250T596 174T540 124T478 113Q462 116 451 125T436 151T437 196Q422 161
394 136T321 110Q288 110 259 127T211 177T192 258Q192 306 211 352T269 429T364 460Q405 460 432 435T462 375L477 452H528L480 231Q472 191 474 171T487 148Q504 142 524 154T564 192T596 255T609 338Q609 392 583 439T505 516T376 546Q299 546 238 511T142 413T107
270Q107 194 139 138T233 50T383 18Q438 18 483 31T563 70L590 37Q550 6 500 -10T383 -26ZM330 153Q363 153 388 175T429 236T444 324Q444 368 421 391T359 415Q324 415 299 392T260 332T246 257Q246 214 266 184T330 153Z" />
<glyph unicode="A" horiz-adv-x="675" d="M28 0V53H100L263 510H200V563H475V510H410L578 53H646V0H417V53H492L435 217H231L175 53H250V0H28ZM247 270H419L337 509H331L247 270Z" />
<glyph unicode="B" horiz-adv-x="580" d="M39 0V53H117V510H39V563H318Q412 563 461 528T511 423Q511 377 488 345T426 300Q464 291 489 271T528 222T541 159Q541 119 522 83T459 23T339 0H39ZM199 53H325Q396 53 427 82T458 162Q458 209 425 238T322 268H199V53ZM199
323H313Q375 323 402 349T430 420Q430 470 398 490T295 510H199V323Z" />
<glyph unicode="C" horiz-adv-x="665" d="M344 -11Q278 -11 224 10T131 71T70 163T49 282Q49 366 85 432T188 535T345 573Q399 573 442 557T515 510T558 441H536V563H596V393L542 391Q511 456 464 484T349 513Q282 513 233 483T158 400T131 283Q131 230 147 187T193
113T262 66T349 49Q391 49 430 62T500 104T548 182L608 152Q584 91 544 56T453 5T344 -11Z" />
<glyph unicode="D" horiz-adv-x="684" d="M40 0V53H118V510H40V563H346Q420 563 474 540T564 477T617 388T635 287Q635 225 617 173T563 82T473 22T347 0H40ZM200 53H339Q395 53 435 71T501 120T539 194T551 285Q551 328 539 368T501 440T436 491T342 510H200V53Z" />
<glyph unicode="E" horiz-adv-x="582" d="M39 0V53H117V510H39V563H529V396H466V510H199V319H374V385H415V197H374V264H199V53H471V170H534V0H39Z" />
<glyph unicode="F" horiz-adv-x="542" d="M39 0V53H117V510H39V563H520V392H457V510H199V321H369V382H411V199H369V264H199V53H277V0H39Z" />
<glyph unicode="G" horiz-adv-x="684" d="M356 -10Q259 -10 190 27T85 131T48 283Q48 370 87 435T195 536T354 573Q437 573 492 538T577 447H547V563H612V389H554Q527 450 476 482T357 514Q289 514 240 487T163 409T136 288Q136 215 163 162T240 79T359 50Q401
51 437 62T500 95T543 152T559 235L604 228H440V284H639V254Q639 194 621 145T566 62T477 9T356 -10Z" />
<glyph unicode="H" horiz-adv-x="697" d="M39 0V53H117V510H39V563H277V510H199V318H499V510H420V563H658V510H580V53H658V0H420V53H499V261H199V53H277V0H39Z" />
<glyph unicode="I" horiz-adv-x="339" d="M50 0V53H128V510H50V563H289V510H210V53H289V0H50Z" />
<glyph unicode="J" horiz-adv-x="326" d="M33 -106V-42H93Q130 -42 140 -20T150 40V510H73V563H304V510H231V41Q231 -8 219 -40T180 -89T106 -106H33Z" />
<glyph unicode="K" horiz-adv-x="633" d="M39 0V53H117V510H39V563H277V510H199V295L431 510H367V563H600V510H526L282 284L530 53H605V0H364V53H430L199 267V53H277V0H39Z" />
<glyph unicode="L" horiz-adv-x="525" d="M39 0V53H117V510H39V563H277V510H199V53H433V226H499V0H39Z" />
<glyph unicode="M" horiz-adv-x="824" d="M40 0V53H116V510H40V563H231L415 168L590 563H784V510H708V53H784V0H557V53H630V496L418 29H392L177 496V53H250V0H40Z" />
<glyph unicode="N" horiz-adv-x="704" d="M41 0V53H121V510H41V563H215L537 108V510H457V563H678V510H600V0H519L183 479V53H263V0H41Z" />
<glyph unicode="O" horiz-adv-x="709" d="M354 -11Q285 -11 229 12T132 75T71 168T49 280Q49 339 70 392T132 485T228 549T354 573Q423 573 479 550T576 486T637 392T659 280Q659 221 638 169T576 76T480 12T354 -11ZM354 49Q405 49 445 67T514 117T557 190T572
280Q572 328 558 370T515 445T446 495T354 514Q302 514 262 496T194 445T152 370T137 279Q137 231 151 190T194 116T262 67T354 49Z" />
<glyph unicode="P" horiz-adv-x="563" d="M39 0V53H117V510H39V563H317Q420 563 474 522T528 403Q528 321 473 277T312 233H237V286H309Q374 286 409 316T444 402Q444 455 414 482T326 510H199V53H277V0H39Z" />
<glyph unicode="Q" horiz-adv-x="706" d="M525 -134Q464 -134 415 -101T327 -9Q263 -5 212 19T124 83T69 173T49 280Q49 339 70 392T132 485T228 549T354 573Q423 573 479 550T576 486T637 392T659 280Q659 226 641 177T589 89T507 25T398 -8Q424 -38 452 -59T525
-80Q538 -80 552 -78T582 -72L583 -125Q568 -129 554 -131T525 -134ZM354 49Q405 49 445 67T514 117T557 190T572 280Q572 328 558 370T515 445T446 495T354 514Q302 514 262 496T194 445T152 370T137 279Q137 231 151 190T194 116T262 67T354 49Z" />
<glyph unicode="R" horiz-adv-x="619" d="M39 0V53H117V510H39V563H335Q394 563 437 547T503 498T526 416Q526 377 512 346T465 295T381 266L510 53H593V0H454L303 258H234V313H322Q371 313 397 328T434 367T445 415Q445 441 434 462T398 497T336 510H199V53H277V0H39Z" />
<glyph unicode="S" horiz-adv-x="522" d="M300 -10Q260 -10 226 2T165 37T123 90H136V0H71V190H131Q135 149 156 117T213 67T297 48Q349 48 378 72T407 143Q407 180 394 200T351 232T271 252L247 256Q166 270 117 309T68 420Q68 470 90 504T152 556T245 574Q304
574 349 548T410 477H389V563H453V404H394Q390 428 377 454T334 498T249 516Q197 516 169 492T141 428Q141 385 172 362T262 328L285 324Q351 313 394 294T458 242T480 155Q480 111 459 74T398 13T300 -10Z" />
<glyph unicode="T" horiz-adv-x="559" d="M162 0V53H240V510H86V367H25V563H533V367H472V510H321V53H399V0H162Z" />
<glyph unicode="U" horiz-adv-x="670" d="M337 -10Q253 -10 202 18T126 94T102 204V510H27V563H258V510H183V193Q183 149 201 117T255 67T339 50Q392 50 429 67T485 116T505 194V510H431V563H650V510H574V197Q574 127 544 82T460 13T337 -10Z" />
<glyph unicode="V" horiz-adv-x="646" d="M289 0L87 510H16V563H245V510H171L330 89L487 510H415V563H629V510H560L360 0H289Z" />
<glyph unicode="W" horiz-adv-x="922" d="M253 0L93 510H24V563H244V510H171L293 104L438 553H497L643 104L762 510H689V563H899V510H829L674 0H604L463 426L323 0H253Z" />
<glyph unicode="X" horiz-adv-x="637" d="M30 0V50H108L273 288L114 512H37V563H268V512H200L323 334L444 512H375V563H594V512H517L359 289L528 50H607V0H371V50H441L311 243L182 50H253V0H30Z" />
<glyph unicode="Y" horiz-adv-x="632" d="M195 0V53H277V241L89 510H14V563H248V510H177L325 294L468 510H396V563H618V510H541L358 242V53H441V0H195Z" />
<glyph unicode="Z" horiz-adv-x="576" d="M62 0V57L417 510H137V377H77V563H516V512L158 53H463V195H523V0H62Z" />
<glyph unicode="[" horiz-adv-x="282" d="M83 -85V607H246V551H163V-29H246V-85H83Z" />
<glyph unicode="\" horiz-adv-x="315" d="M254 -140L24 593H85L315 -140H254Z" />
<glyph unicode="]" horiz-adv-x="281" d="M35 -85V-29H118V551H35V607H198V-85H35Z" />
<glyph unicode="^" horiz-adv-x="452" d="M37 322L193 610H261L415 322H347L228 550L105 322H37Z" />
<glyph unicode="_" horiz-adv-x="431" d="M6 -79V-38H425V-79H6Z" />
<glyph unicode="`" horiz-adv-x="337" d="M190 477L100 622H184L237 477H190Z" />
<glyph unicode="a" horiz-adv-x="456" d="M174 -11Q113 -11 76 23T39 106Q39 151 60 178T118 217T197 229Q231 229 266 224T336 209L306 204V257Q306 304 281 326T213 348Q185 348 148 339T78 312L56 360Q91 382 135 392T214 403Q266 403 303 386T359 338T379
264V53H441V0H314L308 56H336Q297 22 260 6T174 -11ZM185 40Q222 40 259 56T336 105L306 69V185L329 167Q303 175 270 180T202 185Q167 185 138 170T109 110Q109 80 129 60T185 40Z" />
<glyph unicode="b" horiz-adv-x="522" d="M172 573V338H148Q180 370 223 386T306 403Q359 403 402 380T471 312T497 202Q497 135 469 88T394 15T293 -10Q250 -10 214 6T151 55L172 45V0H25V53H98V521H27V573H172ZM286 346Q252 346 215 330T147 279L172 319V65L149
106Q175 78 210 62T280 45Q339 45 379 83T420 196Q420 268 382 307T286 346Z" />
<glyph unicode="c" horiz-adv-x="469" d="M240 -10Q178 -10 130 17T54 91T26 199Q26 260 52 306T125 378T232 404Q290 404 328 378T376 314H362V395H424V254H368Q359 297 328 321T249 346Q206 346 173 328T122 276T103 201Q103 156 121 122T172 68T247 48Q300
48 332 68T392 120L423 75Q394 37 348 14T240 -10Z" />
<glyph unicode="d" horiz-adv-x="513" d="M229 -11Q175 -11 130 13T56 85T28 197Q28 264 54 309T125 379T221 403Q263 403 304 388T378 344L354 335V521H284V573H428V53H490V0H354V52L377 48Q348 20 312 5T229 -11ZM245 45Q284 45 317 60T379 100L354 66V326L379
290Q348 317 310 332T236 347Q198 347 169 329T122 277T105 191Q105 144 124 112T174 62T245 45Z" />
<glyph unicode="e" horiz-adv-x="461" d="M247 -12Q185 -12 135 14T55 87T25 196Q25 260 53 306T128 378T233 404Q293 404 336 379T403 308T426 200V181H90L91 227H353Q353 266 338 293T295 335T233 350Q196 350 166 333T119 283T101 204Q101 155 119 120T169
65T244 45Q289 45 327 63T393 108L419 63Q392 32 349 10T247 -12Z" />
<glyph unicode="f" horiz-adv-x="316" d="M41 0V53H119V340H42V393H119V477Q119 513 131 540T170 581T237 596Q278 596 310 576T346 504L289 488Q285 514 275 529T240 544Q218 544 206 528T193 476V393H313V340H193V53H294V0H41Z" />
<glyph unicode="g" horiz-adv-x="513" d="M235 -188Q200 -188 162 -182T87 -164L102 -106Q137 -116 170 -122T233 -129Q294 -129 328 -101T363 -14V56L386 60Q356 29 315 13T232 -3Q177 -3 131 21T58 90T31 200Q31 266 57 311T129 379T230 402Q270 402 314 385T382
339H362V393H503V340H437V-9Q437 -73 411 -112T339 -170T235 -188ZM239 348Q201 348 172 331T125 279T108 195Q108 149 126 117T176 69T247 52Q282 52 320 67T387 111L363 74L362 321L387 289Q356 315 316 331T239 348Z" />
<glyph unicode="h" horiz-adv-x="521" d="M12 0V53H85V521H13V573H159V335L132 330Q175 362 218 382T307 403Q361 403 399 370T437 272V53H509V0H298V53H363V258Q363 299 344 322T289 345Q251 345 210 327T134 281L159 317V53H223V0H12Z" />
<glyph unicode="i" horiz-adv-x="267" d="M22 0V53H98V340H23V393H171V53H242V0H22ZM125 479Q103 479 87 493T71 530Q71 552 87 566T125 581Q148 581 163 567T179 530Q179 508 164 494T125 479Z" />
<glyph unicode="j" horiz-adv-x="249" d="M5 -152V-94H47Q88 -94 100 -75T112 -14V340H32V393H187V4Q187 -40 179 -75T141 -131T48 -152H5ZM134 479Q112 479 96 494T80 531Q80 552 96 566T134 581Q157 581 172 567T188 531Q188 509 173 494T134 479Z" />
<glyph unicode="k" horiz-adv-x="498" d="M26 0V53H100V521H28V573H174V210L344 340H271V393H480V340H420L250 205L404 53H482V0H367L174 193V53H238V0H26Z" />
<glyph unicode="l" horiz-adv-x="260" d="M27 0V53H100V521H29V573H174V53H238V0H27Z" />
<glyph unicode="m" horiz-adv-x="787" d="M22 0V53H98V340H22V393H171V344L144 336Q185 366 227 384T311 403Q372 403 406 366T440 270V53H512V0H301V53H367V258Q367 299 347 322T292 345Q259 345 220 329T142 287L171 316V53H242V0H22ZM574 0V53H640V258Q640
299 620 322T565 345Q531 345 496 331T428 293L413 334Q455 364 496 383T584 403Q637 403 675 370T713 272V53H785V0H574Z" />
<glyph unicode="n" horiz-adv-x="517" d="M22 0V53H98V340H22V393H171V339L143 336Q185 365 227 384T313 403Q367 403 404 370T442 272V53H515V0H304V53H369V258Q369 299 349 322T294 345Q258 345 221 329T142 285L171 317V53H242V0H22Z" />
<glyph unicode="o" horiz-adv-x="476" d="M237 -12Q174 -12 126 14T52 87T25 197Q25 260 51 306T126 378T237 404Q301 404 349 379T424 307T451 198Q451 135 424 88T349 15T237 -12ZM237 46Q279 46 310 65T358 118T375 198Q375 243 358 276T310 327T237 346Q196
346 166 328T118 276T101 197Q101 152 118 118T165 65T237 46Z" />
<glyph unicode="p" horiz-adv-x="512" d="M19 -156V-103H90V340H21V393H159L160 348L138 337Q168 368 209 385T294 403Q347 403 390 380T459 312T485 202Q485 135 457 88T383 15T282 -10Q252 -10 226 -2T179 18T149 47L164 50L163 -103H240V-156H19ZM269 45Q328
45 368 83T408 196Q408 268 370 307T274 346Q256 346 231 340T181 319T139 282L163 324L164 73L141 104Q167 76 201 61T269 45Z" />
<glyph unicode="q" horiz-adv-x="530" d="M288 -161V-105H365V59L388 58Q357 25 314 7T229 -11Q175 -11 130 13T56 85T28 197Q28 264 54 309T125 379T221 403Q266 403 311 385T387 335L365 343L366 393H508V340H439V-105H509V-161H288ZM244 45Q281 45 319 62T389
108L365 75V319L390 282Q356 313 315 330T235 347Q198 347 168 329T121 277T104 191Q104 144 123 112T173 62T244 45Z" />
<glyph unicode="r" horiz-adv-x="386" d="M35 0V53H111V340H35V393H184V276L170 278Q181 323 198 349T238 386T285 398Q305 398 325 393T365 378L347 311Q330 322 313 327T278 333Q240 333 213 302T185 211L184 53H254V0H35Z" />
<glyph unicode="s" horiz-adv-x="432" d="M244 -10Q213 -10 185 -2T135 20T103 53L118 44V0H60V136H112L118 71L104 118Q115 81 153 61T234 41Q272 41 297 56T323 98Q323 130 302 142T233 165L178 177Q123 191 91 214T59 293Q59 346 100 374T204 403Q228 403 254
397T303 377T334 345L319 350V395H378V260H326L313 355L330 289Q326 307 308 320T265 342T216 350Q184 350 159 337T133 295Q133 273 150 261T208 239L259 228Q297 219 327 207T376 171T394 104Q394 65 373 40T317 2T244 -10Z" />
<glyph unicode="t" horiz-adv-x="301" d="M199 0Q143 0 114 28T85 116V340H20V393H85V527L159 556V393H263V340H159V120Q159 83 171 68T212 53H272V0H199Z" />
<glyph unicode="u" horiz-adv-x="510" d="M208 -10Q162 -10 133 8T91 56T77 122V340H11V393H151V130Q151 93 169 71T225 49Q269 49 306 70T376 128L353 89V340H282V393H426V53H499V0H355L352 65L378 70Q339 33 297 12T208 -10Z" />
<glyph unicode="v" horiz-adv-x="514" d="M224 0L74 340H7V393H217V340H153L263 76L372 340H309V393H507V340H444L291 0H224Z" />
<glyph unicode="w" horiz-adv-x="715" d="M185 0L61 340H9V393H187V340H133L226 73L319 340H263V393H456V340H399L496 72L582 340H527V393H704V340H649L531 0H459L358 279L257 0H185Z" />
<glyph unicode="x" horiz-adv-x="504" d="M24 0V53H83L214 201L90 340H26V393H224V340H165L255 236L345 340H286V393H483V340H413L292 204L426 53H485V0H284V53H351L250 165L153 53H214V0H24Z" />
<glyph unicode="y" horiz-adv-x="519" d="M101 -159V-99H146Q172 -99 188 -95T215 -77T237 -33L258 25H227L81 340H8V393H214V340H156L274 73L379 340H311V393H516V340H452L306 -23Q288 -69 273 -99T230 -144T152 -159H101Z" />
<glyph unicode="z" horiz-adv-x="438" d="M51 0V52L304 342H112V261H56V393H390V338L137 50H338V140H396V0H51Z" />
<glyph unicode="{" horiz-adv-x="283" d="M222 -65Q179 -65 156 -53T122 -16T109 44T107 123Q107 166 103 194T82 236T31 250V306Q65 306 81 320T102 363T107 434Q107 477 109 511T121 570T154 608T221 621H258V570Q222 570 203 564T178 540T171 484Q171 430 169
394T160 336T140 301T103 278Q123 269 136 257T156 224T167 173T170 94Q170 46 174 23T197 -8T258 -15V-65H222Z" />
<glyph unicode="|" horiz-adv-x="141" d="M40 -140V593H101V-140H40Z" />
<glyph unicode="}" horiz-adv-x="284" d="M43 -65V-15Q85 -15 103 -8T126 22T131 91Q131 139 134 171T144 223T165 256T199 278Q176 287 163 300T142 336T133 394T130 484Q130 522 124 540T99 564T43 570V621H80Q122 621 145 608T179 571T192 512T194 435Q194
393 199 364T220 321T270 306V250Q236 250 220 236T199 194T194 123Q194 79 192 44T180 -15T146 -52T80 -65H43Z" />
<glyph unicode="~" horiz-adv-x="525" d="M352 229Q320 229 290 243T232 271T176 285Q157 285 145 275T131 242H70Q73 275 87 297T123 330T173 341Q209 341 238 327T295 299T349 285Q369 285 380 296T394 328H455Q452 296 438 274T402 241T352 229Z" />
<glyph unicode="&#xa0;" horiz-adv-x="305" />
<glyph unicode="&#xa1;" horiz-adv-x="161" d="M63 284L49 20V-150H126V20L112 284H63ZM87 443Q65 443 50 429T34 393Q34 371 49 357T87 342Q110 342 125 356T141 393Q141 414 126 428T87 443Z" />
<glyph unicode="&#xa2;" horiz-adv-x="469" d="M213 -89V483H273V-89H213ZM240 -10Q178 -10 130 17T54 91T26 199Q26 260 52 306T125 378T232 404Q290 404 328 378T376 314H362V395H424V254H368Q359 297 328 321T249 346Q206 346 173 328T122 276T103 201Q103
156 121 122T172 68T247 48Q300 48 332 68T392 120L423 75Q394 37 348 14T240 -10Z" />
<glyph unicode="&#xa3;" horiz-adv-x="512" d="M147 -10Q99 -10 71 16T43 80Q43 118 70 146T144 175Q174 175 198 164T243 135T283 101T323 72T366 60Q401 60 416 80T432 137H486V131Q486 66 458 30T374 -7Q339 -7 313 6T265 40T226 80T189 113T147 127Q124 127
110 115T95 80Q95 58 109 46T146 33Q171 33 188 48T214 90T223 151Q223 182 212 207T185 256T154 303T127 354T116 414Q116 464 138 499T200 554T292 574Q378 574 419 532T461 418H391Q391 464 367 490T293 517Q246 517 218 489T190 410Q190 381 199 356T221 306T248
258T271 209T280 155Q280 111 263 73T217 13T147 -10ZM71 263V314H416V263H71Z" />
<glyph unicode="&#xa4;" horiz-adv-x="609" d="M305 46Q233 46 177 78T88 167T55 294Q55 365 87 420T176 508T305 541Q376 541 432 509T521 421T554 294Q554 223 522 167T433 79T305 46ZM85 29L40 74L125 155L167 115L85 29ZM524 29L442 115L484 155L569 74L524
29ZM305 116Q355 116 394 139T457 202T480 294Q480 345 457 385T395 448T305 471Q254 471 215 448T152 385T129 294Q129 243 152 203T214 139T305 116ZM123 434L40 513L85 558L165 474L123 434ZM487 435L444 474L524 558L569 513L487 435Z" />
<glyph unicode="&#xa5;" horiz-adv-x="628" d="M147 225V270H483V225H147ZM147 128V174H483V128H147ZM193 0V53H275V241L87 510H12V563H246V510H175L323 294L466 510H394V563H616V510H539L356 242V53H439V0H193Z" />
<glyph unicode="&#xa6;" horiz-adv-x="141" d="M40 293V593H101V293H40ZM40 -140V160H101V-140H40Z" />
<glyph unicode="&#xa7;" horiz-adv-x="444" d="M229 -83Q174 -83 142 -70T95 -35T80 12Q80 38 95 50T134 62Q135 10 161 -19T236 -48Q282 -48 305 -25T328 36Q328 60 319 76T280 112T191 160Q145 183 118 204T78 249T66 303Q66 333 83 355T126 388Q108 404 96
427T84 485Q84 542 125 574T233 607Q280 607 310 595T355 562T370 516Q370 496 356 483T313 470Q312 496 305 519T280 557T230 572Q190 572 168 551T146 492Q146 465 157 448T192 418T250 387Q304 360 338 337T388 290T405 233Q405 203 391 177T353 135Q367 119
374 99T381 52Q381 -8 344 -45T229 -83ZM324 160Q335 170 339 183T344 212Q344 231 335 248T302 282T235 322Q226 327 214 332T190 344T168 356T151 367Q138 360 131 347T123 318Q123 294 133 278T168 247T236 209Q264 196 286 184T324 160Z" />
<glyph unicode="&#xa8;" horiz-adv-x="482" d="M145 457Q125 457 113 469T100 500Q100 520 112 531T145 543Q165 543 177 532T190 500Q190 481 178 469T145 457ZM337 457Q317 457 305 469T293 500Q293 520 305 531T337 543Q357 543 369 532T382 500Q382 481 370
469T337 457Z" />
<glyph unicode="&#xa9;" horiz-adv-x="747" d="M373 -15Q305 -15 248 7T148 71T83 169T59 291Q59 357 82 413T148 510T247 573T373 596Q441 596 498 574T598 510T664 413T688 291Q688 225 665 169T599 72T499 8T373 -15ZM373 33Q447 33 504 66T594 158T627 290Q627
365 594 423T504 515T373 549Q300 549 243 516T153 424T120 290Q120 216 153 158T243 66T373 33ZM378 117Q329 117 290 139T228 200T205 291Q205 332 218 364T256 418T310 451T375 463Q407 463 434 452T475 420V456H521V344H477Q470 379 445 399T381 419Q351 419
324 405T280 362T263 292Q263 253 278 224T320 178T380 161Q413 161 443 176T493 217L526 189Q504 156 463 137T378 117Z" />
<glyph unicode="&#xaa;" horiz-adv-x="363" d="M129 244Q77 244 49 272T20 337Q20 374 38 395T86 425T152 435Q172 435 192 433T233 427V458Q233 526 159 526Q137 526 107 519T52 495L32 535Q58 555 93 564T162 573Q204 573 233 560T279 521T295 463V295H346V251H238L235
280Q215 263 189 254T129 244ZM138 287Q163 287 188 296T233 321V389Q219 392 200 394T158 397Q127 397 104 386T80 339Q80 317 95 302T138 287Z" />
<glyph unicode="&#xab;" horiz-adv-x="435" d="M350 94L204 289L350 484H403L301 290L403 94H350ZM164 94L19 289L164 484H218L116 290L218 94H164Z" />
<glyph unicode="&#xac;" horiz-adv-x="520" d="M399 133V253H70V306H450V133H399Z" />
<glyph unicode="&#xad;" horiz-adv-x="347" d="M54 206V262H293V206H54Z" />
<glyph unicode="&#xae;" horiz-adv-x="747" d="M369 -11Q298 -11 241 12T144 77T83 173T61 290Q61 353 82 407T144 503T241 568T369 592Q441 592 498 569T595 504T656 407T678 290Q678 228 657 174T595 78T498 13T369 -11ZM369 37Q426 37 472 56T550 111T600 191T617
289Q617 341 600 387T551 468T472 524T369 544Q311 544 265 524T187 469T138 387T121 289Q121 237 138 191T187 111T265 57T369 37ZM229 137V167H273V431H228V461H389Q438 461 466 438T495 375Q495 343 474 321T416 292L486 167H532V137H456L374 288H317V167H360V137H229ZM317
319H388Q417 319 434 334T451 375Q451 401 435 416T390 431H317V319Z" />
<glyph unicode="&#xaf;" horiz-adv-x="410" d="M100 473V518H310V473H100Z" />
<glyph unicode="&#xb0;" horiz-adv-x="236" d="M118 374Q65 374 34 408T2 489Q2 535 33 569T118 604Q171 604 202 570T234 489Q234 443 203 409T118 374ZM119 410Q154 410 174 434T194 489Q194 520 174 544T118 568Q83 568 63 545T42 489Q42 458 62 434T119 410Z" />
<glyph unicode="&#xb1;" horiz-adv-x="571" d="M256 146V327H70V380H256V558H316V380H501V327H316V146H256ZM70 42V95H501V42H70Z" />
<glyph unicode="&#xb2;" horiz-adv-x="295" d="M24 298V335L121 425Q165 466 187 495T209 558Q208 584 193 601T142 618Q108 618 89 597T70 538Q70 528 71 518T76 497H28Q24 509 22 521T20 544Q20 579 34 606T75 648T142 664Q198 664 230 635T263 558Q263 512
235 476T156 394L60 307L44 341H223V404H269V298H24Z" />
<glyph unicode="&#xb3;" horiz-adv-x="303" d="M153 285Q104 285 68 307T20 366L62 390Q74 362 97 347T155 331Q188 331 207 348T227 395Q227 427 202 442T120 458L119 501Q172 501 194 516T216 559Q216 585 199 601T150 618Q119 618 98 603T64 564L21 586Q37
621 71 642T151 664Q204 664 237 638T270 566Q270 525 237 499T142 473V491Q216 491 249 462T283 386Q283 340 248 313T153 285Z" />
<glyph unicode="&#xb4;" horiz-adv-x="337" d="M100 477L153 622H237L147 477H100Z" />
<glyph unicode="&#xb5;" horiz-adv-x="525" d="M92 -133V340H26V393H166V130Q166 93 184 71T243 49Q278 49 309 63T368 104V340H297V393H441V53H514V0H370L368 48Q336 21 301 6T229 -10Q208 -10 193 -6T166 6V-133H92Z" />
<glyph unicode="&#xb6;" horiz-adv-x="532" d="M244 -3V51H351V250H228Q173 250 136 272T79 330T59 407Q59 448 77 483T135 541T239 563H495V511H423V51H495V-3H244ZM256 305H351V511H256V305Z" />
<glyph unicode="&#xb7;" horiz-adv-x="228" d="M114 219Q91 219 76 234T60 270Q60 291 75 305T114 320Q137 320 152 306T168 270Q168 249 153 234T114 219Z" />
<glyph unicode="&#xb8;" horiz-adv-x="358" d="M187 -175Q144 -175 100 -156V-127Q116 -131 130 -134T157 -137Q174 -137 184 -131T195 -111Q195 -98 182 -90T138 -80L169 0H202L186 -58Q224 -62 241 -79T258 -118Q258 -149 237 -162T187 -175Z" />
<glyph unicode="&#xb9;" horiz-adv-x="214" d="M20 298V338H80V604L22 596L21 635L134 652V338H194V298H20Z" />
<glyph unicode="&#xba;" horiz-adv-x="398" d="M198 244Q150 244 112 264T52 322T30 410Q30 460 52 496T112 553T199 573Q248 573 286 553T346 497T368 410Q368 360 346 323T285 265T198 244ZM199 294Q228 294 251 308T289 348T303 410Q303 446 289 471T252 509T198
523Q170 523 147 510T109 471T95 409Q95 373 109 348T146 308T199 294Z" />
<glyph unicode="&#xbb;" horiz-adv-x="435" d="M217 94L319 290L217 484H271L417 289L271 94H217ZM32 94L134 290L32 484H85L231 289L85 94H32Z" />
<glyph unicode="&#xbc;" horiz-adv-x="677" d="M40 476V516H100V782L42 774L41 813L154 830V516H214V476H40ZM118 -1L491 567H542L170 -1H118ZM467 0V40H523V91H355L350 126L522 354H573V130H637V91H573V40H629V0H467ZM407 130H523V285L407 130Z" />
<glyph unicode="&#xbd;" horiz-adv-x="708" d="M40 475V515H100V781L42 773L41 812L154 829V515H214V475H40ZM117 -1L490 567H541L169 -1H117ZM423 0V37L520 127Q564 168 586 197T608 260Q607 286 592 303T541 320Q507 320 488 299T469 240Q469 230 470 220T475
199H427Q423 211 421 223T419 246Q419 281 433 308T474 350T541 366Q597 366 629 337T662 260Q662 214 634 178T555 96L459 9L443 43H622V106H668V0H423Z" />
<glyph unicode="&#xbe;" horiz-adv-x="751" d="M173 461Q124 461 88 483T40 542L82 566Q94 538 117 523T175 507Q208 507 227 524T247 571Q247 603 222 618T140 634L139 677Q192 677 214 692T236 735Q236 761 219 777T170 794Q139 794 118 779T84 740L41 762Q57
797 91 818T171 840Q224 840 257 814T290 742Q290 701 257 675T162 649V667Q236 667 269 638T303 562Q303 516 268 489T173 461ZM195 -1L568 567H619L247 -1H195ZM541 0V40H597V91H429L424 126L596 354H647V130H711V91H647V40H703V0H541ZM481 130H597V285L481 130Z"
/>
<glyph unicode="&#xbf;" horiz-adv-x="386" d="M254 281V275Q254 237 245 211T218 161T175 110Q143 74 129 46T115 -18Q115 -59 137 -80T195 -101Q235 -101 257 -78T282 -10H366Q363 -60 339 -93T278 -143T196 -160Q119 -160 74 -121T28 -20Q28 25 52 58T117 134Q141
159 154 178T172 219T177 275V281H254ZM216 440Q238 440 254 426T270 389Q270 367 254 353T216 338Q193 338 177 352T161 389Q161 411 177 425T216 440Z" />
<glyph unicode="&#xc0;" horiz-adv-x="675" d="M28 0V53H100L263 510H200V563H475V510H410L578 53H646V0H417V53H492L435 217H231L175 53H250V0H28ZM247 270H419L337 509H331L247 270ZM314 647L224 792H308L361 647H314Z" />
<glyph unicode="&#xc1;" horiz-adv-x="675" d="M28 0V53H100L263 510H200V563H475V510H410L578 53H646V0H417V53H492L435 217H231L175 53H250V0H28ZM247 270H419L337 509H331L247 270ZM315 647L368 792H452L362 647H315Z" />
<glyph unicode="&#xc2;" horiz-adv-x="675" d="M28 0V53H100L263 510H200V563H475V510H410L578 53H646V0H417V53H492L435 217H231L175 53H250V0H28ZM247 270H419L337 509H331L247 270ZM216 619L299 776H377L460 619H404L338 744L272 619H216Z" />
<glyph unicode="&#xc3;" horiz-adv-x="675" d="M28 0V53H100L263 510H200V563H475V510H410L578 53H646V0H417V53H492L435 217H231L175 53H250V0H28ZM247 270H419L337 509H331L247 270ZM401 640Q379 640 355 649T308 668T268 677Q243 677 237 644H206Q210 690 229
711T279 732Q298 732 321 723T367 705T405 695Q420 695 429 703T442 730H471Q468 693 452 667T401 640Z" />
<glyph unicode="&#xc4;" horiz-adv-x="675" d="M28 0V53H100L263 510H200V563H475V510H410L578 53H646V0H417V53H492L435 217H231L175 53H250V0H28ZM247 270H419L337 509H331L247 270ZM242 627Q222 627 210 639T197 670Q197 690 209 701T242 713Q262 713 274 702T287
670Q287 651 275 639T242 627ZM434 627Q414 627 402 639T390 670Q390 690 402 701T434 713Q454 713 466 702T479 670Q479 651 467 639T434 627Z" />
<glyph unicode="&#xc5;" horiz-adv-x="675" d="M28 0V53H100L263 510H200V563H475V510H410L578 53H646V0H417V53H492L435 217H231L175 53H250V0H28ZM247 270H419L337 509H331L247 270ZM338 598Q301 598 280 620T259 673Q259 704 280 725T338 746Q376 746 396 725T417
673Q417 642 396 620T338 598ZM338 629Q359 629 370 642T382 673Q382 691 371 703T338 716Q317 716 305 704T293 673Q293 655 305 642T338 629Z" />
<glyph unicode="&#xc6;" horiz-adv-x="970" d="M22 0V53H98L378 510H317V563H875L884 385H822L813 510H541L553 315H731L727 381H767L779 191H738L732 259H554L566 53H848L840 179H902L912 0H409V53H485L476 205H271L184 53H252V0H22ZM297 255H475L460 510H451L297 255Z" />
<glyph unicode="&#xc7;" horiz-adv-x="665" d="M344 -11Q278 -11 224 10T131 71T70 163T49 282Q49 366 85 432T188 535T345 573Q399 573 442 557T515 510T558 441H536V563H596V393L542 391Q511 456 464 484T349 513Q282 513 233 483T158 400T131 283Q131 230 147
187T193 113T262 66T349 49Q391 49 430 62T500 104T548 182L608 152Q584 91 544 56T453 5T344 -11ZM339 -175Q296 -175 252 -156V-127Q268 -131 282 -134T309 -137Q326 -137 336 -131T347 -111Q347 -98 334 -90T290 -80L321 0H354L338 -58Q376 -62 393 -79T410
-118Q410 -149 389 -162T339 -175Z" />
<glyph unicode="&#xc8;" horiz-adv-x="582" d="M39 0V53H117V510H39V563H529V396H466V510H199V319H374V385H415V197H374V264H199V53H471V170H534V0H39ZM286 647L196 792H280L333 647H286Z" />
<glyph unicode="&#xc9;" horiz-adv-x="582" d="M39 0V53H117V510H39V563H529V396H466V510H199V319H374V385H415V197H374V264H199V53H471V170H534V0H39ZM287 647L340 792H424L334 647H287Z" />
<glyph unicode="&#xca;" horiz-adv-x="582" d="M39 0V53H117V510H39V563H529V396H466V510H199V319H374V385H415V197H374V264H199V53H471V170H534V0H39ZM188 619L271 776H349L432 619H376L310 744L244 619H188Z" />
<glyph unicode="&#xcb;" horiz-adv-x="582" d="M39 0V53H117V510H39V563H529V396H466V510H199V319H374V385H415V197H374V264H199V53H471V170H534V0H39ZM214 627Q194 627 182 639T169 670Q169 690 181 701T214 713Q234 713 246 702T259 670Q259 651 247 639T214
627ZM406 627Q386 627 374 639T362 670Q362 690 374 701T406 713Q426 713 438 702T451 670Q451 651 439 639T406 627Z" />
<glyph unicode="&#xcc;" horiz-adv-x="339" d="M50 0V53H128V510H50V563H289V510H210V53H289V0H50ZM146 647L56 792H140L193 647H146Z" />
<glyph unicode="&#xcd;" horiz-adv-x="339" d="M50 0V53H128V510H50V563H289V510H210V53H289V0H50ZM147 647L200 792H284L194 647H147Z" />
<glyph unicode="&#xce;" horiz-adv-x="339" d="M50 0V53H128V510H50V563H289V510H210V53H289V0H50ZM48 619L131 776H209L292 619H236L170 744L104 619H48Z" />
<glyph unicode="&#xcf;" horiz-adv-x="339" d="M50 0V53H128V510H50V563H289V510H210V53H289V0H50ZM74 627Q54 627 42 639T29 670Q29 690 41 701T74 713Q94 713 106 702T119 670Q119 651 107 639T74 627ZM266 627Q246 627 234 639T222 670Q222 690 234 701T266
713Q286 713 298 702T311 670Q311 651 299 639T266 627Z" />
<glyph unicode="&#xd0;" horiz-adv-x="684" d="M40 0V53H118V510H40V563H346Q420 563 474 540T564 477T617 388T635 287Q635 225 617 173T563 82T473 22T347 0H40ZM200 53H339Q395 53 435 71T501 120T539 194T551 285Q551 328 539 368T501 440T436 491T342 510H200V53ZM296
261V317H535V261H296Z" />
<glyph unicode="&#xd1;" horiz-adv-x="704" d="M41 0V53H121V510H41V563H215L537 108V510H457V563H678V510H600V0H519L183 479V53H263V0H41ZM414 640Q392 640 368 649T321 668T281 677Q256 677 250 644H219Q223 690 242 711T292 732Q311 732 334 723T380 705T418
695Q433 695 442 703T455 730H484Q481 693 465 667T414 640Z" />
<glyph unicode="&#xd2;" horiz-adv-x="709" d="M354 -11Q285 -11 229 12T132 75T71 168T49 280Q49 339 70 392T132 485T228 549T354 573Q423 573 479 550T576 486T637 392T659 280Q659 221 638 169T576 76T480 12T354 -11ZM354 49Q405 49 445 67T514 117T557 190T572
280Q572 328 558 370T515 445T446 495T354 514Q302 514 262 496T194 445T152 370T137 279Q137 231 151 190T194 116T262 67T354 49ZM329 647L239 792H323L376 647H329Z" />
<glyph unicode="&#xd3;" horiz-adv-x="709" d="M354 -11Q285 -11 229 12T132 75T71 168T49 280Q49 339 70 392T132 485T228 549T354 573Q423 573 479 550T576 486T637 392T659 280Q659 221 638 169T576 76T480 12T354 -11ZM354 49Q405 49 445 67T514 117T557 190T572
280Q572 328 558 370T515 445T446 495T354 514Q302 514 262 496T194 445T152 370T137 279Q137 231 151 190T194 116T262 67T354 49ZM330 647L383 792H467L377 647H330Z" />
<glyph unicode="&#xd4;" horiz-adv-x="709" d="M354 -11Q285 -11 229 12T132 75T71 168T49 280Q49 339 70 392T132 485T228 549T354 573Q423 573 479 550T576 486T637 392T659 280Q659 221 638 169T576 76T480 12T354 -11ZM354 49Q405 49 445 67T514 117T557 190T572
280Q572 328 558 370T515 445T446 495T354 514Q302 514 262 496T194 445T152 370T137 279Q137 231 151 190T194 116T262 67T354 49ZM231 619L314 776H392L475 619H419L353 744L287 619H231Z" />
<glyph unicode="&#xd5;" horiz-adv-x="709" d="M354 -11Q285 -11 229 12T132 75T71 168T49 280Q49 339 70 392T132 485T228 549T354 573Q423 573 479 550T576 486T637 392T659 280Q659 221 638 169T576 76T480 12T354 -11ZM354 49Q405 49 445 67T514 117T557 190T572
280Q572 328 558 370T515 445T446 495T354 514Q302 514 262 496T194 445T152 370T137 279Q137 231 151 190T194 116T262 67T354 49ZM416 640Q394 640 370 649T323 668T283 677Q258 677 252 644H221Q225 690 244 711T294 732Q313 732 336 723T382 705T420 695Q435
695 444 703T457 730H486Q483 693 467 667T416 640Z" />
<glyph unicode="&#xd6;" horiz-adv-x="709" d="M354 -11Q285 -11 229 12T132 75T71 168T49 280Q49 339 70 392T132 485T228 549T354 573Q423 573 479 550T576 486T637 392T659 280Q659 221 638 169T576 76T480 12T354 -11ZM354 49Q405 49 445 67T514 117T557 190T572
280Q572 328 558 370T515 445T446 495T354 514Q302 514 262 496T194 445T152 370T137 279Q137 231 151 190T194 116T262 67T354 49ZM257 627Q237 627 225 639T212 670Q212 690 224 701T257 713Q277 713 289 702T302 670Q302 651 290 639T257 627ZM449 627Q429 627
417 639T405 670Q405 690 417 701T449 713Q469 713 481 702T494 670Q494 651 482 639T449 627Z" />
<glyph unicode="&#xd7;" horiz-adv-x="491" d="M68 62L28 103L205 280L31 455L70 494L245 320L422 497L463 457L285 279L459 105L420 66L246 240L68 62Z" />
<glyph unicode="&#xd8;" horiz-adv-x="660" d="M117 -37L79 -10L554 595L592 569L117 -37ZM330 -12Q261 -12 205 11T108 74T47 167T25 279Q25 338 46 391T108 484T204 548T330 572Q399 572 455 549T552 485T613 391T635 279Q635 220 614 168T552 75T456 11T330
-12ZM330 48Q381 48 421 66T490 116T533 189T548 279Q548 327 534 369T491 444T422 494T330 513Q278 513 238 495T170 444T128 369T113 278Q113 230 127 189T170 115T238 66T330 48Z" />
<glyph unicode="&#xd9;" horiz-adv-x="670" d="M337 -10Q253 -10 202 18T126 94T102 204V510H27V563H258V510H183V193Q183 149 201 117T255 67T339 50Q392 50 429 67T485 116T505 194V510H431V563H650V510H574V197Q574 127 544 82T460 13T337 -10ZM320 647L230
792H314L367 647H320Z" />
<glyph unicode="&#xda;" horiz-adv-x="670" d="M337 -10Q253 -10 202 18T126 94T102 204V510H27V563H258V510H183V193Q183 149 201 117T255 67T339 50Q392 50 429 67T485 116T505 194V510H431V563H650V510H574V197Q574 127 544 82T460 13T337 -10ZM321 647L374
792H458L368 647H321Z" />
<glyph unicode="&#xdb;" horiz-adv-x="670" d="M337 -10Q253 -10 202 18T126 94T102 204V510H27V563H258V510H183V193Q183 149 201 117T255 67T339 50Q392 50 429 67T485 116T505 194V510H431V563H650V510H574V197Q574 127 544 82T460 13T337 -10ZM222 619L305
776H383L466 619H410L344 744L278 619H222Z" />
<glyph unicode="&#xdc;" horiz-adv-x="670" d="M337 -10Q253 -10 202 18T126 94T102 204V510H27V563H258V510H183V193Q183 149 201 117T255 67T339 50Q392 50 429 67T485 116T505 194V510H431V563H650V510H574V197Q574 127 544 82T460 13T337 -10ZM248 627Q228
627 216 639T203 670Q203 690 215 701T248 713Q268 713 280 702T293 670Q293 651 281 639T248 627ZM440 627Q420 627 408 639T396 670Q396 690 408 701T440 713Q460 713 472 702T485 670Q485 651 473 639T440 627Z" />
<glyph unicode="&#xdd;" horiz-adv-x="632" d="M195 0V53H277V241L89 510H14V563H248V510H177L325 294L468 510H396V563H618V510H541L358 242V53H441V0H195ZM299 647L352 792H436L346 647H299Z" />
<glyph unicode="&#xde;" horiz-adv-x="555" d="M50 0V53H128V510H50V563H289V510H210V436L194 446H331Q422 446 471 409T520 306Q520 235 472 198T333 160H240V208H333Q384 208 413 232T442 306Q442 347 413 370T331 394H194L210 407V53H289V0H50Z" />
<glyph unicode="&#xdf;" horiz-adv-x="530" d="M20 0V54H94V392Q94 482 143 532T279 583Q356 583 399 545T443 442Q443 390 414 354T338 311L335 320Q388 317 426 299T484 247T505 165Q505 82 446 41T284 0V54Q327 54 358 65T407 101T425 166Q425 228 387 255T280
283H265V335H280Q322 337 345 363T368 435Q368 476 346 501T281 526Q230 526 202 491T174 396V54H232V0H20Z" />
<glyph unicode="&#xe0;" horiz-adv-x="456" d="M174 -11Q113 -11 76 23T39 106Q39 151 60 178T118 217T197 229Q231 229 266 224T336 209L306 204V257Q306 304 281 326T213 348Q185 348 148 339T78 312L56 360Q91 382 135 392T214 403Q266 403 303 386T359 338T379
264V53H441V0H314L308 56H336Q297 22 260 6T174 -11ZM185 40Q222 40 259 56T336 105L306 69V185L329 167Q303 175 270 180T202 185Q167 185 138 170T109 110Q109 80 129 60T185 40ZM193 477L103 622H187L240 477H193Z" />
<glyph unicode="&#xe1;" horiz-adv-x="456" d="M174 -11Q113 -11 76 23T39 106Q39 151 60 178T118 217T197 229Q231 229 266 224T336 209L306 204V257Q306 304 281 326T213 348Q185 348 148 339T78 312L56 360Q91 382 135 392T214 403Q266 403 303 386T359 338T379
264V53H441V0H314L308 56H336Q297 22 260 6T174 -11ZM185 40Q222 40 259 56T336 105L306 69V185L329 167Q303 175 270 180T202 185Q167 185 138 170T109 110Q109 80 129 60T185 40ZM194 477L247 622H331L241 477H194Z" />
<glyph unicode="&#xe2;" horiz-adv-x="456" d="M174 -11Q113 -11 76 23T39 106Q39 151 60 178T118 217T197 229Q231 229 266 224T336 209L306 204V257Q306 304 281 326T213 348Q185 348 148 339T78 312L56 360Q91 382 135 392T214 403Q266 403 303 386T359 338T379
264V53H441V0H314L308 56H336Q297 22 260 6T174 -11ZM185 40Q222 40 259 56T336 105L306 69V185L329 167Q303 175 270 180T202 185Q167 185 138 170T109 110Q109 80 129 60T185 40ZM95 449L178 606H256L339 449H283L217 574L151 449H95Z" />
<glyph unicode="&#xe3;" horiz-adv-x="456" d="M174 -11Q113 -11 76 23T39 106Q39 151 60 178T118 217T197 229Q231 229 266 224T336 209L306 204V257Q306 304 281 326T213 348Q185 348 148 339T78 312L56 360Q91 382 135 392T214 403Q266 403 303 386T359 338T379
264V53H441V0H314L308 56H336Q297 22 260 6T174 -11ZM185 40Q222 40 259 56T336 105L306 69V185L329 167Q303 175 270 180T202 185Q167 185 138 170T109 110Q109 80 129 60T185 40ZM280 470Q258 470 234 479T187 498T147 507Q122 507 116 474H85Q89 520 108 541T158
562Q177 562 200 553T246 535T284 525Q299 525 308 533T321 560H350Q347 523 331 497T280 470Z" />
<glyph unicode="&#xe4;" horiz-adv-x="456" d="M174 -11Q113 -11 76 23T39 106Q39 151 60 178T118 217T197 229Q231 229 266 224T336 209L306 204V257Q306 304 281 326T213 348Q185 348 148 339T78 312L56 360Q91 382 135 392T214 403Q266 403 303 386T359 338T379
264V53H441V0H314L308 56H336Q297 22 260 6T174 -11ZM185 40Q222 40 259 56T336 105L306 69V185L329 167Q303 175 270 180T202 185Q167 185 138 170T109 110Q109 80 129 60T185 40ZM121 457Q101 457 89 469T76 500Q76 520 88 531T121 543Q141 543 153 532T166 500Q166
481 154 469T121 457ZM313 457Q293 457 281 469T269 500Q269 520 281 531T313 543Q333 543 345 532T358 500Q358 481 346 469T313 457Z" />
<glyph unicode="&#xe5;" horiz-adv-x="456" d="M174 -11Q113 -11 76 23T39 106Q39 151 60 178T118 217T197 229Q231 229 266 224T336 209L306 204V257Q306 304 281 326T213 348Q185 348 148 339T78 312L56 360Q91 382 135 392T214 403Q266 403 303 386T359 338T379
264V53H441V0H314L308 56H336Q297 22 260 6T174 -11ZM185 40Q222 40 259 56T336 105L306 69V185L329 167Q303 175 270 180T202 185Q167 185 138 170T109 110Q109 80 129 60T185 40ZM217 428Q180 428 159 450T138 503Q138 534 159 555T217 576Q255 576 275 555T296
503Q296 472 275 450T217 428ZM217 459Q238 459 249 472T261 503Q261 521 250 533T217 546Q196 546 184 534T172 503Q172 485 184 472T217 459Z" />
<glyph unicode="&#xe6;" horiz-adv-x="742" d="M179 -11Q115 -11 77 23T39 106Q39 151 61 177T122 215T206 227H306V257Q306 304 281 326T213 348Q185 348 148 339T78 312L56 360Q91 382 135 392T214 403Q248 403 276 396T324 374T358 339Q387 370 427 387T514
404Q574 404 617 379T684 308T707 200V181H383Q387 139 406 109T455 62T525 45Q570 45 608 63T674 108L700 63Q673 32 630 10T528 -12Q474 -12 429 7T354 62Q313 24 272 7T179 -11ZM190 40Q227 40 259 54T329 99Q319 117 314 137T306 181H211Q185 181 162 175T124
153T109 110Q109 80 130 60T190 40ZM383 227H634Q634 266 619 293T576 335T514 350Q480 350 452 336T406 294T383 227Z" />
<glyph unicode="&#xe7;" horiz-adv-x="469" d="M240 -10Q178 -10 130 17T54 91T26 199Q26 260 52 306T125 378T232 404Q290 404 328 378T376 314H362V395H424V254H368Q359 297 328 321T249 346Q206 346 173 328T122 276T103 201Q103 156 121 122T172 68T247 48Q300
48 332 68T392 120L423 75Q394 37 348 14T240 -10ZM242 -175Q199 -175 155 -156V-127Q171 -131 185 -134T212 -137Q229 -137 239 -131T250 -111Q250 -98 237 -90T193 -80L224 0H257L241 -58Q279 -62 296 -79T313 -118Q313 -149 292 -162T242 -175Z" />
<glyph unicode="&#xe8;" horiz-adv-x="461" d="M247 -12Q185 -12 135 14T55 87T25 196Q25 260 53 306T128 378T233 404Q293 404 336 379T403 308T426 200V181H90L91 227H353Q353 266 338 293T295 335T233 350Q196 350 166 333T119 283T101 204Q101 155 119 120T169
65T244 45Q289 45 327 63T393 108L419 63Q392 32 349 10T247 -12ZM212 477L122 622H206L259 477H212Z" />
<glyph unicode="&#xe9;" horiz-adv-x="461" d="M247 -12Q185 -12 135 14T55 87T25 196Q25 260 53 306T128 378T233 404Q293 404 336 379T403 308T426 200V181H90L91 227H353Q353 266 338 293T295 335T233 350Q196 350 166 333T119 283T101 204Q101 155 119 120T169
65T244 45Q289 45 327 63T393 108L419 63Q392 32 349 10T247 -12ZM213 477L266 622H350L260 477H213Z" />
<glyph unicode="&#xea;" horiz-adv-x="461" d="M247 -12Q185 -12 135 14T55 87T25 196Q25 260 53 306T128 378T233 404Q293 404 336 379T403 308T426 200V181H90L91 227H353Q353 266 338 293T295 335T233 350Q196 350 166 333T119 283T101 204Q101 155 119 120T169
65T244 45Q289 45 327 63T393 108L419 63Q392 32 349 10T247 -12ZM114 449L197 606H275L358 449H302L236 574L170 449H114Z" />
<glyph unicode="&#xeb;" horiz-adv-x="461" d="M247 -12Q185 -12 135 14T55 87T25 196Q25 260 53 306T128 378T233 404Q293 404 336 379T403 308T426 200V181H90L91 227H353Q353 266 338 293T295 335T233 350Q196 350 166 333T119 283T101 204Q101 155 119 120T169
65T244 45Q289 45 327 63T393 108L419 63Q392 32 349 10T247 -12ZM140 457Q120 457 108 469T95 500Q95 520 107 531T140 543Q160 543 172 532T185 500Q185 481 173 469T140 457ZM332 457Q312 457 300 469T288 500Q288 520 300 531T332 543Q352 543 364 532T377
500Q377 481 365 469T332 457Z" />
<glyph unicode="&#xec;" horiz-adv-x="267" d="M22 0V53H98V340H23V393H171V53H242V0H22ZM101 477L11 622H95L148 477H101Z" />
<glyph unicode="&#xed;" horiz-adv-x="267" d="M22 0V53H98V340H23V393H171V53H242V0H22ZM102 477L155 622H239L149 477H102Z" />
<glyph unicode="&#xee;" horiz-adv-x="267" d="M22 0V53H98V340H23V393H171V53H242V0H22ZM3 449L86 606H164L247 449H191L125 574L59 449H3Z" />
<glyph unicode="&#xef;" horiz-adv-x="267" d="M22 0V53H98V340H23V393H171V53H242V0H22ZM29 457Q9 457 -3 469T-16 500Q-16 520 -4 531T29 543Q49 543 61 532T74 500Q74 481 62 469T29 457ZM221 457Q201 457 189 469T177 500Q177 520 189 531T221 543Q241 543
253 532T266 500Q266 481 254 469T221 457Z" />
<glyph unicode="&#xf0;" horiz-adv-x="479" d="M242 -10Q177 -10 133 16T65 87T42 186Q42 243 65 288T131 359T234 385Q278 385 306 372T342 350Q319 399 277 446T183 539T78 624L114 669Q157 635 203 597T291 517T368 425T422 319T442 195Q442 135 416 89T345
17T242 -10ZM242 49Q289 49 318 70T360 125T374 195Q374 237 358 267T313 314T242 331Q202 331 173 313T129 262T113 187Q113 151 128 120T172 69T242 49ZM111 432L89 477L383 608L406 564L111 432Z" />
<glyph unicode="&#xf1;" horiz-adv-x="517" d="M22 0V53H98V340H22V393H171V339L143 336Q185 365 227 384T313 403Q367 403 404 370T442 272V53H515V0H304V53H369V258Q369 299 349 322T294 345Q258 345 221 329T142 285L171 317V53H242V0H22ZM345 470Q323 470
299 479T252 498T212 507Q187 507 181 474H150Q154 520 173 541T223 562Q242 562 265 553T311 535T349 525Q364 525 373 533T386 560H415Q412 523 396 497T345 470Z" />
<glyph unicode="&#xf2;" horiz-adv-x="476" d="M237 -12Q174 -12 126 14T52 87T25 197Q25 260 51 306T126 378T237 404Q301 404 349 379T424 307T451 198Q451 135 424 88T349 15T237 -12ZM237 46Q279 46 310 65T358 118T375 198Q375 243 358 276T310 327T237 346Q196
346 166 328T118 276T101 197Q101 152 118 118T165 65T237 46ZM213 477L123 622H207L260 477H213Z" />
<glyph unicode="&#xf3;" horiz-adv-x="476" d="M237 -12Q174 -12 126 14T52 87T25 197Q25 260 51 306T126 378T237 404Q301 404 349 379T424 307T451 198Q451 135 424 88T349 15T237 -12ZM237 46Q279 46 310 65T358 118T375 198Q375 243 358 276T310 327T237 346Q196
346 166 328T118 276T101 197Q101 152 118 118T165 65T237 46ZM214 477L267 622H351L261 477H214Z" />
<glyph unicode="&#xf4;" horiz-adv-x="476" d="M237 -12Q174 -12 126 14T52 87T25 197Q25 260 51 306T126 378T237 404Q301 404 349 379T424 307T451 198Q451 135 424 88T349 15T237 -12ZM237 46Q279 46 310 65T358 118T375 198Q375 243 358 276T310 327T237 346Q196
346 166 328T118 276T101 197Q101 152 118 118T165 65T237 46ZM115 449L198 606H276L359 449H303L237 574L171 449H115Z" />
<glyph unicode="&#xf5;" horiz-adv-x="476" d="M237 -12Q174 -12 126 14T52 87T25 197Q25 260 51 306T126 378T237 404Q301 404 349 379T424 307T451 198Q451 135 424 88T349 15T237 -12ZM237 46Q279 46 310 65T358 118T375 198Q375 243 358 276T310 327T237 346Q196
346 166 328T118 276T101 197Q101 152 118 118T165 65T237 46ZM300 470Q278 470 254 479T207 498T167 507Q142 507 136 474H105Q109 520 128 541T178 562Q197 562 220 553T266 535T304 525Q319 525 328 533T341 560H370Q367 523 351 497T300 470Z" />
<glyph unicode="&#xf6;" horiz-adv-x="476" d="M237 -12Q174 -12 126 14T52 87T25 197Q25 260 51 306T126 378T237 404Q301 404 349 379T424 307T451 198Q451 135 424 88T349 15T237 -12ZM237 46Q279 46 310 65T358 118T375 198Q375 243 358 276T310 327T237 346Q196
346 166 328T118 276T101 197Q101 152 118 118T165 65T237 46ZM141 457Q121 457 109 469T96 500Q96 520 108 531T141 543Q161 543 173 532T186 500Q186 481 174 469T141 457ZM333 457Q313 457 301 469T289 500Q289 520 301 531T333 543Q353 543 365 532T378 500Q378
481 366 469T333 457Z" />
<glyph unicode="&#xf7;" horiz-adv-x="571" d="M70 253V306H501V253H70ZM241 60V150H331V60H241ZM241 409V499H331V409H241Z" />
<glyph unicode="&#xf8;" horiz-adv-x="482" d="M122 -63L87 -45L359 453L394 436L122 -63ZM237 -12Q174 -12 126 14T52 87T25 197Q25 260 51 306T126 378T237 404Q301 404 349 379T424 307T451 198Q451 135 424 88T349 15T237 -12ZM237 46Q279 46 310 65T358 118T375
198Q375 243 358 276T310 327T237 346Q196 346 166 328T118 276T101 197Q101 152 118 118T165 65T237 46Z" />
<glyph unicode="&#xf9;" horiz-adv-x="510" d="M208 -10Q162 -10 133 8T91 56T77 122V340H11V393H151V130Q151 93 169 71T225 49Q269 49 306 70T376 128L353 89V340H282V393H426V53H499V0H355L352 65L378 70Q339 33 297 12T208 -10ZM215 477L125 622H209L262 477H215Z" />
<glyph unicode="&#xfa;" horiz-adv-x="510" d="M208 -10Q162 -10 133 8T91 56T77 122V340H11V393H151V130Q151 93 169 71T225 49Q269 49 306 70T376 128L353 89V340H282V393H426V53H499V0H355L352 65L378 70Q339 33 297 12T208 -10ZM216 477L269 622H353L263 477H216Z" />
<glyph unicode="&#xfb;" horiz-adv-x="510" d="M208 -10Q162 -10 133 8T91 56T77 122V340H11V393H151V130Q151 93 169 71T225 49Q269 49 306 70T376 128L353 89V340H282V393H426V53H499V0H355L352 65L378 70Q339 33 297 12T208 -10ZM117 449L200 606H278L361 449H305L239
574L173 449H117Z" />
<glyph unicode="&#xfc;" horiz-adv-x="510" d="M208 -10Q162 -10 133 8T91 56T77 122V340H11V393H151V130Q151 93 169 71T225 49Q269 49 306 70T376 128L353 89V340H282V393H426V53H499V0H355L352 65L378 70Q339 33 297 12T208 -10ZM143 457Q123 457 111 469T98
500Q98 520 110 531T143 543Q163 543 175 532T188 500Q188 481 176 469T143 457ZM335 457Q315 457 303 469T291 500Q291 520 303 531T335 543Q355 543 367 532T380 500Q380 481 368 469T335 457Z" />
<glyph unicode="&#xfd;" horiz-adv-x="519" d="M101 -159V-99H146Q172 -99 188 -95T215 -77T237 -33L258 25H227L81 340H8V393H214V340H156L274 73L379 340H311V393H516V340H452L306 -23Q288 -69 273 -99T230 -144T152 -159H101ZM240 477L293 622H377L287 477H240Z" />
<glyph unicode="&#xfe;" horiz-adv-x="537" d="M20 -159V-105H88V509H16V563H163V353Q197 382 236 396T313 410Q366 410 409 387T478 319T504 209Q504 142 476 95T402 22T301 -3Q264 -3 228 11T163 54V-105H233V-159H20ZM288 52Q347 52 387 90T427 203Q427 275
389 314T293 354Q262 354 228 339T163 295V106Q190 80 223 66T288 52Z" />
<glyph unicode="&#xff;" horiz-adv-x="519" d="M101 -159V-99H146Q172 -99 188 -95T215 -77T237 -33L258 25H227L81 340H8V393H214V340H156L274 73L379 340H311V393H516V340H452L306 -23Q288 -69 273 -99T230 -144T152 -159H101ZM167 457Q147 457 135 469T122
500Q122 520 134 531T167 543Q187 543 199 532T212 500Q212 481 200 469T167 457ZM359 457Q339 457 327 469T315 500Q315 520 327 531T359 543Q379 543 391 532T404 500Q404 481 392 469T359 457Z" />
<glyph unicode="&#x2013;" horiz-adv-x="637" d="M0 206V262H637V206H0Z" />
<glyph unicode="&#x2014;" horiz-adv-x="744" d="M0 206V262H744V206H0Z" />
<glyph unicode="&#x2018;" horiz-adv-x="211" d="M171 591V553Q141 548 129 532T117 475H168V380H70V460Q70 522 93 556T171 591Z" />
<glyph unicode="&#x2019;" horiz-adv-x="211" d="M40 380V418Q70 423 82 439T94 496H43V591H141V511Q141 449 118 415T40 380Z" />
<glyph unicode="&#x201a;" horiz-adv-x="211" d="M296 -116V-78Q326 -73 338 -57T350 0H299V95H397V15Q397 -47 374 -81T296 -116Z" />
<glyph unicode="&#x201c;" horiz-adv-x="355" d="M315 591V553Q285 548 273 532T261 475H312V380H214V460Q214 522 237 556T315 591ZM171 591V553Q141 548 129 532T117 475H168V380H70V460Q70 522 93 556T171 591Z" />
<glyph unicode="&#x201d;" horiz-adv-x="355" d="M40 380V418Q70 423 82 439T94 496H43V591H141V511Q141 449 118 415T40 380ZM184 380V418Q214 423 226 439T238 496H187V591H285V511Q285 449 262 415T184 380Z" />
<glyph unicode="&#x201e;" horiz-adv-x="355" d="M296 -116V-78Q326 -73 338 -57T350 0H299V95H397V15Q397 -47 374 -81T296 -116ZM184 -116V-78Q214 -73 226 -57T238 0H187V95H285V15Q285 -47 262 -81T184 -116Z" />
<glyph unicode="&#x2022;" horiz-adv-x="268" d="M134 150Q105 150 83 163T49 199T36 244Q36 282 63 310T134 338Q178 338 205 312T232 244Q232 205 205 178T134 150Z" />
<glyph unicode="&#x2039;" horiz-adv-x="271" d="M156 94L10 289L156 484H209L107 290L209 94H156Z" />
<glyph unicode="&#x203a;" horiz-adv-x="271" d="M62 94L164 290L62 484H115L261 290L115 94H62Z" />
</font>
</defs>
</svg>
